<mxfile host="Electron" agent="Mozilla/5.0 (Macintosh; Intel Mac OS X 10_15_7) AppleWebKit/537.36 (KHTML, like Gecko) draw.io/27.0.2 Chrome/134.0.6998.205 Electron/35.3.0 Safari/537.36" version="27.0.2">
  <diagram name="Page-1" id="onslZwJBYq4gnXnBHAha">
    <mxGraphModel dx="1186" dy="882" grid="0" gridSize="10" guides="1" tooltips="1" connect="1" arrows="1" fold="1" page="1" pageScale="1" pageWidth="850" pageHeight="1100" math="0" shadow="0">
      <root>
        <mxCell id="0" />
        <mxCell id="1" parent="0" />
        <mxCell id="ZMBende6DRT1XUKpBi5d-1" value="" style="ellipse;html=1;shape=startState;fillColor=#FAE5C7;strokeColor=#0F8B8D;labelBackgroundColor=none;fontColor=#143642;sketch=1;curveFitting=1;jiggle=2;" vertex="1" parent="1">
          <mxGeometry x="373" y="32" width="30" height="30" as="geometry" />
        </mxCell>
        <mxCell id="ZMBende6DRT1XUKpBi5d-2" value="" style="edgeStyle=orthogonalEdgeStyle;html=1;verticalAlign=bottom;endArrow=open;endSize=8;strokeColor=#A8201A;rounded=0;entryX=0.5;entryY=0;entryDx=0;entryDy=0;labelBackgroundColor=none;fontColor=default;sketch=1;curveFitting=1;jiggle=2;" edge="1" parent="1" source="ZMBende6DRT1XUKpBi5d-1" target="ZMBende6DRT1XUKpBi5d-5">
          <mxGeometry relative="1" as="geometry">
            <mxPoint x="388" y="122" as="targetPoint" />
          </mxGeometry>
        </mxCell>
        <mxCell id="ZMBende6DRT1XUKpBi5d-3" style="edgeStyle=orthogonalEdgeStyle;rounded=0;orthogonalLoop=1;jettySize=auto;html=1;exitX=0;exitY=0.75;exitDx=0;exitDy=0;strokeColor=#A8201A;fontColor=default;fillColor=#FAE5C7;dashed=1;dashPattern=8 8;labelBackgroundColor=none;entryX=0.5;entryY=0;entryDx=0;entryDy=0;sketch=1;curveFitting=1;jiggle=2;" edge="1" parent="1" source="ZMBende6DRT1XUKpBi5d-5" target="ZMBende6DRT1XUKpBi5d-9">
          <mxGeometry relative="1" as="geometry">
            <mxPoint x="163" y="248" as="targetPoint" />
          </mxGeometry>
        </mxCell>
        <mxCell id="ZMBende6DRT1XUKpBi5d-4" style="edgeStyle=orthogonalEdgeStyle;rounded=0;orthogonalLoop=1;jettySize=auto;html=1;exitX=0.5;exitY=1;exitDx=0;exitDy=0;entryX=0.5;entryY=0;entryDx=0;entryDy=0;strokeColor=#A8201A;fontColor=default;fillColor=#FAE5C7;labelBackgroundColor=none;sketch=1;curveFitting=1;jiggle=2;" edge="1" parent="1" source="ZMBende6DRT1XUKpBi5d-5" target="ZMBende6DRT1XUKpBi5d-13">
          <mxGeometry relative="1" as="geometry">
            <mxPoint x="388" y="244" as="targetPoint" />
          </mxGeometry>
        </mxCell>
        <mxCell id="ZMBende6DRT1XUKpBi5d-5" value="select appointment" style="rounded=1;whiteSpace=wrap;html=1;arcSize=40;fontColor=#143642;fillColor=#FAE5C7;strokeColor=#0F8B8D;labelBackgroundColor=none;sketch=1;curveFitting=1;jiggle=2;" vertex="1" parent="1">
          <mxGeometry x="328" y="131" width="120" height="40" as="geometry" />
        </mxCell>
        <mxCell id="ZMBende6DRT1XUKpBi5d-9" value="appointment" style="html=1;whiteSpace=wrap;strokeColor=#0F8B8D;fontColor=#143642;fillColor=#FAE5C7;labelBackgroundColor=none;sketch=1;curveFitting=1;jiggle=2;" vertex="1" parent="1">
          <mxGeometry x="80" y="256" width="110" height="50" as="geometry" />
        </mxCell>
        <mxCell id="ZMBende6DRT1XUKpBi5d-10" style="edgeStyle=orthogonalEdgeStyle;rounded=0;orthogonalLoop=1;jettySize=auto;html=1;exitX=0.5;exitY=0;exitDx=0;exitDy=0;entryX=1;entryY=0.5;entryDx=0;entryDy=0;strokeColor=#A8201A;fontColor=default;fillColor=#FAE5C7;labelBackgroundColor=none;sketch=1;curveFitting=1;jiggle=2;" edge="1" parent="1" source="ZMBende6DRT1XUKpBi5d-11" target="ZMBende6DRT1XUKpBi5d-1">
          <mxGeometry relative="1" as="geometry" />
        </mxCell>
        <mxCell id="ZMBende6DRT1XUKpBi5d-11" value="" style="rhombus;whiteSpace=wrap;html=1;fontColor=#143642;fillColor=#FAE5C7;strokeColor=#0F8B8D;labelBackgroundColor=none;sketch=1;curveFitting=1;jiggle=2;" vertex="1" parent="1">
          <mxGeometry x="598" y="244" width="80" height="40" as="geometry" />
        </mxCell>
        <mxCell id="ZMBende6DRT1XUKpBi5d-12" style="edgeStyle=orthogonalEdgeStyle;rounded=0;orthogonalLoop=1;jettySize=auto;html=1;exitX=0.5;exitY=1;exitDx=0;exitDy=0;entryX=0.5;entryY=0;entryDx=0;entryDy=0;strokeColor=#A8201A;fontColor=default;fillColor=#FAE5C7;labelBackgroundColor=none;sketch=1;curveFitting=1;jiggle=2;" edge="1" parent="1" source="ZMBende6DRT1XUKpBi5d-13" target="ZMBende6DRT1XUKpBi5d-15">
          <mxGeometry relative="1" as="geometry" />
        </mxCell>
        <mxCell id="ZMBende6DRT1XUKpBi5d-13" value="store database" style="rounded=1;whiteSpace=wrap;html=1;arcSize=40;fontColor=#143642;fillColor=#FAE5C7;strokeColor=#0F8B8D;labelBackgroundColor=none;sketch=1;curveFitting=1;jiggle=2;" vertex="1" parent="1">
          <mxGeometry x="328" y="350" width="120" height="40" as="geometry" />
        </mxCell>
        <mxCell id="ZMBende6DRT1XUKpBi5d-15" value="success/fail" style="rhombus;whiteSpace=wrap;html=1;fontColor=#143642;fillColor=#FAE5C7;strokeColor=#0F8B8D;labelBackgroundColor=none;sketch=1;curveFitting=1;jiggle=2;" vertex="1" parent="1">
          <mxGeometry x="348" y="488" width="80" height="40" as="geometry" />
        </mxCell>
        <mxCell id="ZMBende6DRT1XUKpBi5d-16" value="no" style="edgeStyle=orthogonalEdgeStyle;html=1;align=left;verticalAlign=bottom;endArrow=open;endSize=8;strokeColor=#A8201A;rounded=0;fontColor=default;fillColor=#FAE5C7;entryX=0;entryY=0.5;entryDx=0;entryDy=0;labelBackgroundColor=none;sketch=1;curveFitting=1;jiggle=2;" edge="1" parent="1" source="ZMBende6DRT1XUKpBi5d-15" target="ZMBende6DRT1XUKpBi5d-19">
          <mxGeometry x="-1" relative="1" as="geometry">
            <mxPoint x="537" y="508" as="targetPoint" />
          </mxGeometry>
        </mxCell>
        <mxCell id="ZMBende6DRT1XUKpBi5d-17" value="yes" style="edgeStyle=orthogonalEdgeStyle;html=1;align=left;verticalAlign=top;endArrow=open;endSize=8;strokeColor=#A8201A;rounded=0;fontColor=default;fillColor=#FAE5C7;entryX=0.5;entryY=0;entryDx=0;entryDy=0;labelBackgroundColor=none;sketch=1;curveFitting=1;jiggle=2;" edge="1" parent="1" source="ZMBende6DRT1XUKpBi5d-15" target="ZMBende6DRT1XUKpBi5d-20">
          <mxGeometry x="-1" relative="1" as="geometry">
            <mxPoint x="397" y="588" as="targetPoint" />
          </mxGeometry>
        </mxCell>
        <mxCell id="ZMBende6DRT1XUKpBi5d-18" style="edgeStyle=orthogonalEdgeStyle;rounded=0;orthogonalLoop=1;jettySize=auto;html=1;exitX=0.5;exitY=0;exitDx=0;exitDy=0;entryX=0.5;entryY=1;entryDx=0;entryDy=0;strokeColor=#A8201A;fontColor=#143642;fillColor=#FAE5C7;sketch=1;curveFitting=1;jiggle=2;" edge="1" parent="1" source="ZMBende6DRT1XUKpBi5d-19" target="ZMBende6DRT1XUKpBi5d-11">
          <mxGeometry relative="1" as="geometry" />
        </mxCell>
        <mxCell id="ZMBende6DRT1XUKpBi5d-19" value="show error" style="rounded=1;whiteSpace=wrap;html=1;arcSize=40;fontColor=#143642;fillColor=#FAE5C7;strokeColor=#0F8B8D;labelBackgroundColor=none;sketch=1;curveFitting=1;jiggle=2;" vertex="1" parent="1">
          <mxGeometry x="578" y="488" width="120" height="40" as="geometry" />
        </mxCell>
        <mxCell id="ZMBende6DRT1XUKpBi5d-20" value="store" style="rounded=1;whiteSpace=wrap;html=1;arcSize=40;fontColor=#143642;fillColor=#FAE5C7;strokeColor=#0F8B8D;labelBackgroundColor=none;sketch=1;curveFitting=1;jiggle=2;" vertex="1" parent="1">
          <mxGeometry x="328" y="595" width="120" height="40" as="geometry" />
        </mxCell>
        <mxCell id="ZMBende6DRT1XUKpBi5d-21" value="" style="edgeStyle=orthogonalEdgeStyle;html=1;verticalAlign=bottom;endArrow=open;endSize=8;strokeColor=#A8201A;rounded=0;fontColor=default;fillColor=#FAE5C7;entryX=0.5;entryY=0;entryDx=0;entryDy=0;labelBackgroundColor=none;sketch=1;curveFitting=1;jiggle=2;" edge="1" parent="1" source="ZMBende6DRT1XUKpBi5d-20" target="ZMBende6DRT1XUKpBi5d-22">
          <mxGeometry relative="1" as="geometry">
            <mxPoint x="397" y="695" as="targetPoint" />
          </mxGeometry>
        </mxCell>
        <mxCell id="ZMBende6DRT1XUKpBi5d-22" value="" style="ellipse;html=1;shape=endState;fillColor=#FAE5C7;strokeColor=#0F8B8D;fontColor=#143642;labelBackgroundColor=none;sketch=1;curveFitting=1;jiggle=2;" vertex="1" parent="1">
          <mxGeometry x="373" y="705" width="30" height="30" as="geometry" />
        </mxCell>
        <mxCell id="ZMBende6DRT1XUKpBi5d-23" style="edgeStyle=orthogonalEdgeStyle;rounded=0;orthogonalLoop=1;jettySize=auto;html=1;exitX=1;exitY=0.5;exitDx=0;exitDy=0;entryX=0;entryY=0.5;entryDx=0;entryDy=0;strokeColor=#A8201A;fontColor=#143642;fillColor=#FAE5C7;sketch=1;curveFitting=1;jiggle=2;" edge="1" parent="1" source="ZMBende6DRT1XUKpBi5d-11" target="ZMBende6DRT1XUKpBi5d-24">
          <mxGeometry relative="1" as="geometry">
            <mxPoint x="783" y="263.6700000000001" as="targetPoint" />
          </mxGeometry>
        </mxCell>
        <mxCell id="ZMBende6DRT1XUKpBi5d-24" value="" style="ellipse;html=1;shape=endState;fillColor=#FAE5C7;strokeColor=#0F8B8D;fontColor=#143642;labelBackgroundColor=none;sketch=1;curveFitting=1;jiggle=2;" vertex="1" parent="1">
          <mxGeometry x="783" y="249" width="30" height="30" as="geometry" />
        </mxCell>
      </root>
    </mxGraphModel>
  </diagram>
</mxfile>
